<?xml version="1.0" encoding="utf-8"?>
<!-- Generator: Adobe Illustrator 19.0.0, SVG Export Plug-In . SVG Version: 6.00 Build 0)  -->
<svg version="1.1" id="Layer_1" xmlns="http://www.w3.org/2000/svg" xmlns:xlink="http://www.w3.org/1999/xlink" x="0px" y="0px"
	 viewBox="-267 359 76 76" style="enable-background:new -267 359 76 76;" xml:space="preserve">
<style type="text/css">
	.st0{fill:#00FF00;}
</style>
<g>
	<path class="st0" d="M-232.7,422c-0.8,0-1.5-0.7-1.5-1.5v-18.3h-18.3c-0.8,0-1.5-0.7-1.5-1.5v-7.4c0-0.8,0.7-1.5,1.5-1.5h18.3
		v-18.3c0-0.8,0.7-1.5,1.5-1.5h7.4c0.8,0,1.5,0.7,1.5,1.5v18.3h18.3c0.8,0,1.5,0.7,1.5,1.5v7.4c0,0.8-0.7,1.5-1.5,1.5h-18.3v18.3
		c0,0.8-0.7,1.5-1.5,1.5H-232.7z"/>
	<path d="M-225.3,373.5v19.8h19.8v7.4h-19.8v19.8h-7.4v-19.8h-19.8v-7.4h19.8v-19.8H-225.3 M-225.3,370.5h-7.4c-1.7,0-3,1.3-3,3
		v16.8h-16.8c-1.7,0-3,1.3-3,3v7.4c0,1.7,1.3,3,3,3h16.8v16.8c0,1.7,1.3,3,3,3h7.4c1.7,0,3-1.3,3-3v-16.8h16.8c1.7,0,3-1.3,3-3v-7.4
		c0-1.7-1.3-3-3-3h-16.8v-16.8C-222.3,371.8-223.6,370.5-225.3,370.5L-225.3,370.5z"/>
</g>
</svg>
