<?xml version="1.0" encoding="utf-8"?>
<!-- Generator: Adobe Illustrator 19.0.0, SVG Export Plug-In . SVG Version: 6.00 Build 0)  -->
<svg version="1.1" id="Layer_1" xmlns="http://www.w3.org/2000/svg" xmlns:xlink="http://www.w3.org/1999/xlink" x="0px" y="0px"
	 viewBox="-267 359 76 76" style="enable-background:new -267 359 76 76;" xml:space="preserve">
<path d="M-223.7,378.3h20v37.3h-20V413h6.7v-5.3h-6.7v-1.3h6.7V401h-6.7v-1.3h6.7v-5.3h-6.7V393h6.7v-5.3h-6.7v-1.3h6.7V381h-6.7
	V378.3z M-206.4,413l0-5.3h-9.3v5.3H-206.4z M-206.4,401h-9.3v5.3h9.3L-206.4,401z M-206.4,394.3h-9.3v5.3h9.3V394.3z M-206.4,387.7
	h-9.3v5.3h9.3V387.7z M-206.4,381h-9.3v5.3h9.3L-206.4,381z M-254.3,378l29.3-5.3v48.6l-29.3-5.3V378z M-233.5,405.7l-4.4-9.5
	l4.3-9.2l-3.5,0.1l-2.3,5.5l-0.3,0.9l-0.2,0.7l0,0c-0.5-2.4-1.5-4.6-2.3-6.9l-3.8,0.2l4,8.8l-4.3,8.8l3.7,0.2l2.3-5.8l0.3-1.3l0,0
	c0.6,2.5,1.8,4.9,2.8,7.3L-233.5,405.7z"/>
</svg>
