<?xml version="1.0" encoding="utf-8"?>
<!-- Generator: Adobe Illustrator 19.0.0, SVG Export Plug-In . SVG Version: 6.00 Build 0)  -->
<svg version="1.1" id="Layer_1" xmlns="http://www.w3.org/2000/svg" xmlns:xlink="http://www.w3.org/1999/xlink" x="0px" y="0px"
	 viewBox="-267 359 76 76" style="enable-background:new -267 359 76 76;" xml:space="preserve">
<style type="text/css">
	.st0{fill:#FF0000;}
</style>
<g>
	<path class="st0" d="M-234.6,421.7c-0.1,0-0.3,0-0.4-0.1l-6.8-2.7c-0.5-0.2-0.8-0.8-0.6-1.3l2.2-5.6c-1.5-1.1-2.8-2.4-3.9-3.9
		l-5.6,2.2c-0.1,0-0.2,0.1-0.4,0.1c-0.4,0-0.8-0.2-0.9-0.6l-2.7-6.8c-0.1-0.2-0.1-0.5,0-0.8c0.1-0.2,0.3-0.4,0.5-0.5l5.6-2.2
		c-0.1-0.8-0.2-1.6-0.2-2.4c0-0.8,0.1-1.6,0.2-2.4l-5.6-2.2c-0.2-0.1-0.4-0.3-0.5-0.5c-0.1-0.2-0.1-0.5,0-0.8l2.7-6.8
		c0.2-0.4,0.5-0.6,0.9-0.6c0.1,0,0.3,0,0.4,0.1l5.6,2.2c1-1.3,2.1-2.5,3.4-3.5l-2.4-5.5c-0.2-0.5,0-1.1,0.5-1.3l6.7-3
		c0.1-0.1,0.3-0.1,0.4-0.1c0.1,0,0.2,0,0.4,0.1c0.2,0.1,0.4,0.3,0.6,0.5l2.4,5.5c1-0.2,2.1-0.3,3.1-0.3c0.8,0,1.6,0.1,2.4,0.2
		l2.2-5.6c0.1-0.2,0.3-0.4,0.5-0.5c0.1-0.1,0.3-0.1,0.4-0.1c0.1,0,0.3,0,0.4,0.1l6.8,2.7c0.5,0.2,0.8,0.8,0.6,1.3l-2.2,5.6
		c1.5,1.1,2.8,2.4,3.9,3.9l5.6-2.2c0.1,0,0.3-0.1,0.4-0.1c0.4,0,0.8,0.2,0.9,0.6l2.7,6.8c0.1,0.2,0.1,0.5,0,0.8s-0.3,0.4-0.5,0.5
		l-5.6,2.2c0.1,0.8,0.2,1.6,0.2,2.4c0,0.8-0.1,1.6-0.2,2.4l5.6,2.2c0.2,0.1,0.4,0.3,0.5,0.5s0.1,0.5,0,0.8l-2.7,6.8
		c-0.2,0.4-0.5,0.6-0.9,0.6c-0.1,0-0.3,0-0.4-0.1l-5.6-2.2c-1,1.3-2.1,2.5-3.4,3.5l2.4,5.5c0.2,0.5,0,1.1-0.5,1.3l-6.7,3
		c-0.1,0.1-0.3,0.1-0.4,0.1c-0.1,0-0.2,0-0.4-0.1c-0.2-0.1-0.4-0.3-0.6-0.5l-2.4-5.5c-1,0.2-2.1,0.3-3.1,0.3c-0.8,0-1.6-0.1-2.4-0.2
		l-2.2,5.6c-0.1,0.2-0.3,0.4-0.5,0.5C-234.4,421.6-234.5,421.7-234.6,421.7z M-229,385.8c-6.2,0-11.2,5-11.2,11.2s5,11.2,11.2,11.2
		s11.2-5,11.2-11.2S-222.8,385.8-229,385.8z"/>
	<path d="M-223.4,373.3l6.8,2.7l-2.5,6.3c1.9,1.3,3.5,2.9,4.8,4.8l6.3-2.5l2.7,6.8l-6.3,2.5c0.2,1,0.3,2,0.3,3.1s-0.1,2.1-0.3,3.1
		l6.3,2.5l-2.7,6.8l-6.3-2.5c-1.2,1.7-2.6,3.2-4.3,4.4l2.8,6.2l-6.7,3l-2.8-6.2c-1.2,0.3-2.4,0.4-3.7,0.4c-1.1,0-2.1-0.1-3.1-0.3
		l-2.5,6.3l-6.8-2.7l2.5-6.3c-1.9-1.3-3.5-2.9-4.8-4.8l-6.3,2.5l-2.7-6.8l6.3-2.5c-0.2-1-0.3-2-0.3-3.1s0.1-2.1,0.3-3.1l-6.3-2.5
		l2.7-6.8l6.3,2.5c1.2-1.7,2.6-3.2,4.3-4.4l-2.8-6.2l6.7-3l2.8,6.2c1.2-0.3,2.4-0.4,3.7-0.4c1.1,0,2.1,0.1,3.1,0.3L-223.4,373.3
		 M-229,409.2c6.7,0,12.2-5.4,12.2-12.2c0-6.7-5.4-12.2-12.2-12.2c-6.7,0-12.2,5.4-12.2,12.2C-241.2,403.7-235.7,409.2-229,409.2
		 M-223.4,371.3c-0.3,0-0.5,0.1-0.8,0.2c-0.5,0.2-0.9,0.6-1.1,1.1l-2,4.9c-0.6-0.1-1.2-0.1-1.8-0.1c-0.8,0-1.7,0.1-2.5,0.2l-2.1-4.8
		c-0.2-0.5-0.6-0.9-1.1-1.1c-0.2-0.1-0.5-0.1-0.7-0.1c-0.3,0-0.6,0.1-0.8,0.2l-6.7,3c-1,0.4-1.5,1.6-1,2.6l2.1,4.8
		c-0.9,0.8-1.8,1.7-2.5,2.6l-4.9-2c-0.2-0.1-0.5-0.1-0.7-0.1c-0.8,0-1.5,0.5-1.9,1.3l-2.7,6.8c-0.2,0.5-0.2,1,0,1.5s0.6,0.9,1.1,1.1
		l4.9,2c-0.1,0.6-0.1,1.2-0.1,1.8c0,0.6,0,1.2,0.1,1.8l-4.9,2c-0.5,0.2-0.9,0.6-1.1,1.1s-0.2,1,0,1.5l2.7,6.8
		c0.3,0.8,1.1,1.3,1.9,1.3c0.2,0,0.5,0,0.7-0.1l4.9-2c0.9,1.1,1.9,2.1,3,3l-2,4.9c-0.4,1,0.1,2.2,1.1,2.6l6.8,2.7
		c0.2,0.1,0.5,0.1,0.7,0.1c0.3,0,0.5-0.1,0.8-0.2c0.5-0.2,0.9-0.6,1.1-1.1l2-4.9c0.6,0.1,1.2,0.1,1.8,0.1c0.8,0,1.7-0.1,2.5-0.2
		l2.1,4.8c0.2,0.5,0.6,0.9,1.1,1.1c0.2,0.1,0.5,0.1,0.7,0.1c0.3,0,0.6-0.1,0.8-0.2l6.7-3c1-0.4,1.5-1.6,1-2.6l-2.1-4.8
		c0.9-0.8,1.8-1.7,2.5-2.6l4.9,2c0.2,0.1,0.5,0.1,0.7,0.1c0.8,0,1.5-0.5,1.9-1.3l2.7-6.8c0.2-0.5,0.2-1,0-1.5s-0.6-0.9-1.1-1.1
		l-4.9-2c0.1-0.6,0.1-1.2,0.1-1.8c0-0.6,0-1.2-0.1-1.8l4.9-2c0.5-0.2,0.9-0.6,1.1-1.1c0.2-0.5,0.2-1,0-1.5l-2.7-6.8
		c-0.3-0.8-1.1-1.3-1.9-1.3c-0.2,0-0.5,0-0.7,0.1l-4.9,2c-0.9-1.1-1.9-2.1-3-3l2-4.9c0.4-1-0.1-2.2-1.1-2.6l-6.8-2.7
		C-222.9,371.4-223.1,371.3-223.4,371.3L-223.4,371.3z M-229,407.2c-5.6,0-10.2-4.6-10.2-10.2s4.6-10.2,10.2-10.2
		s10.2,4.6,10.2,10.2S-223.4,407.2-229,407.2L-229,407.2z"/>
</g>
</svg>
