<?xml version="1.0" encoding="utf-8"?>
<!-- Svg Vector Icons : http://www.onlinewebfonts.com/icon -->
<!DOCTYPE svg PUBLIC "-//W3C//DTD SVG 1.1//EN" "http://www.w3.org/Graphics/SVG/1.1/DTD/svg11.dtd">
<svg version="1.1" xmlns="http://www.w3.org/2000/svg" xmlns:xlink="http://www.w3.org/1999/xlink" x="0px" y="0px" viewBox="0 0 1000 1000" enable-background="new 0 0 1000 1000" xml:space="preserve">
<metadata> Svg Vector Icons : http://www.onlinewebfonts.com/icon </metadata>
<g><path d="M990,494.2c0-10.2-4.4-19.3-11.3-25.7l-386.8-334c-6.2-5.2-14-8.5-22.7-8.5c-19.4,0-35.1,15.7-35.1,35.1v147.9C238.5,356.6,30.3,573.9,10,852.9c1,11.8,10.6,21.2,22.7,21.2c4.6,0,9-1.4,12.7-3.8c0.1-0.1,0,0.2,0.1,0.2c51.1-36.3,95.2-63.3,129.7-81.5c62.8-34.6,151.6-64.1,253.6-83v-0.2c14.6,0,26.4-12.1,26.4-27c0-14.9-11.8-27-26.4-27c-3.4,0-6.6,0.7-9.6,1.9c-163.3,32-270.9,84.1-355.3,144.5c54.5-200.3,188.3-380.5,502.8-439.7l0,0c13.9-2.3,24.5-14.6,24.5-29.6c0-0.4,0-0.8,0-1.2v0V215l325.7,279.3L594.7,770h-2.4V634h-0.1c-0.9-15.7-13.6-28.1-29-28.1c-16.1,0-29.1,13.4-29.1,30l0,0l0,0v55.1v73.8v63.2c0,19.4,15.6,35.1,35.1,35.1c8.3,0,15.7-3.1,21.7-7.9L977.8,521c0,0-0.1-0.1-0.1-0.1C985.2,514.5,990,504.9,990,494.2z"/></g>
</svg>